<svg width="1080" height="1080" viewBox="0 0 1080 1080" fill="none" xmlns="http://www.w3.org/2000/svg">
<rect width="1080" height="1080" rx="309" fill="black"/>
<path d="M520 327C564.4 327 603.2 336 636.4 354C670 371.6 695.8 396.4 713.8 428.4C731.8 460.4 740.8 497 740.8 538.2C740.8 579 731.6 615.4 713.2 647.4C695.2 679.4 669.4 704.6 635.8 723C602.6 741 564 750 520 750H352.6V327H520ZM511 646.2C545.4 646.2 572.4 636.8 592 618C611.6 599.2 621.4 572.6 621.4 538.2C621.4 503.4 611.6 476.6 592 457.8C572.4 438.6 545.4 429 511 429H470.2V646.2H511Z" fill="white"/>
</svg>
